<svg width="1207" height="1021" viewBox="0 0 1207 1021" fill="none" xmlns="http://www.w3.org/2000/svg">
    <path fill-rule="evenodd" clip-rule="evenodd" d="M610.463 267.403C626.624 240.551 634.704 210.715 634.704 177.896C634.704 145.325 626.624 115.614 610.463 88.7615C594.55 61.6606 573.168 40.154 546.316 24.2416C519.464 8.08053 489.628 0 456.808 0H79.0128V509.136C55.094 523.53 35.9668 542.838 21.6309 567.06C7.21032 591.178 0 617.906 0 647.244C0 670.367 4.84832 692.495 14.5449 713.629C24.2416 734.514 37.6677 752.291 54.8233 766.96C78.9405 786.105 103.928 797.915 129.786 802.39C155.892 806.617 180.507 808.482 203.629 807.984H211.834C254.847 808.979 297.612 809.103 340.128 808.357H352.435C373.569 808.109 394.33 807.736 414.717 807.239C421.679 807.239 428.641 807.114 435.603 806.866C459.223 805.374 478.989 807.86 494.901 814.325C509.57 821.783 518.646 833.966 522.126 850.873C525.359 868.526 521.256 883.817 509.819 896.746C498.631 908.432 485.826 914.274 471.406 914.274H17.9015V1020.94H471.406C493.782 1020.94 515.165 1016.34 535.552 1007.14C555.94 997.939 573.842 984.886 589.257 967.979C606.412 948.834 618.222 926.83 624.687 901.967C630.654 878.596 631.4 854.852 626.925 830.734C616.233 779.516 587.889 742.097 541.893 718.477C523.494 709.775 504.971 704.429 486.323 702.44C467.925 700.451 450.396 699.705 433.738 700.203C426.528 700.451 419.442 700.576 412.48 700.576C392.341 701.073 372.077 701.446 351.689 701.694H339.382C297.612 702.192 255.842 702.067 214.072 701.321H213.699H204.748C187.593 701.321 172.053 700.576 158.13 699.084C144.206 697.343 132.769 692.868 123.819 685.658C112.381 674.718 106.663 661.913 106.663 647.244C106.663 632.575 111.884 620.019 122.327 609.576C132.769 599.134 145.325 593.913 159.994 593.913H580.133L812.621 1020.94H916.012L1206.56 487.266L920.117 0H808.515L522.08 487.25H185.676V355.792H456.808C489.628 355.792 519.464 347.836 546.316 331.923C573.168 315.762 594.55 294.255 610.463 267.403ZM1083.94 487.266L1037.04 415.104H684.438L644.678 487.266H644.705L864.316 890.783L1083.93 487.266H1083.94ZM185.676 249.129V106.663H456.808C476.45 106.663 493.233 113.625 507.156 127.548C521.08 141.471 528.041 158.254 528.041 177.896C528.041 197.538 521.08 214.32 507.156 228.244C493.233 242.167 476.45 249.129 456.808 249.129H185.676ZM747.878 308.499L864.316 111.005L980.754 308.499H747.878Z" fill="#4C367A"/>
</svg>
